<svg width="184" height="150" xmlns="http://www.w3.org/2000/svg">
<path d="M 79,149 L 80,149 Z" stroke="black" fill="none" stroke-width="2"/>
<path d="M 51,0 L 50,1 L 47,1 L 46,2 L 45,2 L 44,3 L 42,3 L 41,4 L 40,4 L 38,6 L 37,6 L 36,7 L 35,7 L 33,9 L 32,9 L 29,12 L 28,12 L 21,19 L 20,19 L 19,20 L 19,21 L 13,27 L 13,28 L 11,30 L 11,31 L 10,32 L 10,33 L 8,35 L 8,36 L 7,37 L 7,38 L 6,39 L 6,41 L 5,42 L 5,44 L 4,45 L 4,46 L 3,47 L 3,50 L 2,51 L 2,53 L 1,54 L 1,59 L 0,60 L 0,65 L 0,60 L 1,59 L 2,60 L 2,70 L 1,71 L 1,76 L 2,77 L 2,88 L 1,89 L 0,88 L 0,82 L 0,88 L 1,89 L 1,95 L 2,96 L 2,99 L 3,100 L 3,103 L 4,104 L 4,107 L 5,108 L 5,110 L 6,111 L 6,113 L 7,114 L 7,116 L 8,117 L 8,119 L 9,120 L 9,121 L 11,123 L 11,124 L 13,126 L 14,126 L 18,130 L 19,130 L 21,132 L 22,132 L 23,133 L 24,133 L 25,134 L 27,134 L 28,135 L 29,135 L 30,136 L 38,136 L 39,135 L 40,135 L 41,134 L 41,133 L 42,132 L 42,130 L 43,129 L 43,125 L 44,124 L 44,118 L 43,117 L 43,110 L 42,109 L 42,102 L 41,101 L 41,94 L 40,93 L 40,90 L 40,93 L 39,94 L 38,93 L 38,84 L 37,83 L 37,58 L 38,57 L 39,58 L 39,82 L 40,83 L 40,85 L 44,89 L 45,89 L 48,92 L 49,92 L 51,94 L 52,94 L 53,95 L 54,95 L 55,96 L 56,96 L 57,97 L 56,98 L 54,98 L 53,97 L 52,97 L 51,96 L 50,96 L 48,94 L 47,94 L 44,91 L 43,91 L 42,90 L 45,93 L 46,93 L 48,95 L 49,95 L 50,96 L 51,96 L 52,97 L 53,97 L 54,98 L 55,98 L 56,99 L 57,99 L 59,101 L 59,105 L 58,106 L 58,111 L 57,112 L 57,129 L 58,130 L 58,133 L 59,134 L 59,136 L 60,137 L 60,139 L 62,141 L 62,142 L 64,144 L 65,144 L 67,146 L 69,146 L 70,147 L 71,147 L 72,148 L 77,148 L 78,147 L 81,147 L 82,148 L 88,148 L 89,147 L 93,147 L 94,148 L 100,148 L 101,149 L 103,149 L 101,149 L 100,148 L 101,147 L 104,147 L 105,148 L 110,148 L 111,147 L 112,147 L 113,146 L 115,146 L 121,140 L 121,139 L 122,138 L 122,137 L 123,136 L 123,133 L 124,132 L 124,128 L 125,127 L 125,115 L 124,114 L 124,108 L 123,107 L 123,101 L 126,98 L 127,98 L 128,97 L 129,97 L 130,96 L 131,96 L 132,95 L 133,95 L 135,93 L 136,93 L 139,90 L 140,90 L 140,89 L 141,88 L 137,92 L 136,92 L 133,95 L 132,95 L 131,96 L 130,96 L 129,97 L 128,97 L 127,98 L 126,98 L 125,99 L 124,99 L 123,100 L 123,107 L 122,108 L 121,107 L 121,99 L 123,97 L 124,97 L 125,96 L 126,96 L 127,95 L 128,95 L 129,94 L 130,94 L 131,93 L 132,93 L 135,90 L 136,90 L 143,83 L 143,80 L 144,79 L 144,61 L 145,60 L 146,61 L 146,79 L 146,61 L 145,60 L 145,53 L 144,52 L 144,49 L 143,48 L 143,46 L 142,45 L 142,42 L 141,41 L 141,40 L 139,38 L 139,37 L 132,30 L 131,30 L 130,29 L 129,29 L 128,28 L 126,28 L 125,27 L 122,27 L 121,26 L 104,26 L 103,25 L 103,22 L 104,21 L 104,19 L 105,18 L 105,17 L 106,16 L 106,15 L 107,14 L 107,13 L 109,11 L 109,10 L 113,6 L 114,6 L 117,3 L 119,3 L 120,2 L 124,2 L 125,1 L 126,1 L 127,2 L 132,2 L 133,3 L 135,3 L 136,4 L 137,4 L 138,5 L 139,5 L 140,6 L 141,6 L 143,8 L 144,8 L 145,9 L 146,9 L 148,11 L 149,11 L 153,15 L 154,15 L 167,28 L 167,29 L 169,31 L 169,32 L 171,34 L 171,35 L 172,36 L 172,37 L 174,39 L 174,40 L 175,41 L 175,42 L 176,43 L 176,45 L 177,46 L 177,47 L 178,48 L 178,51 L 179,52 L 179,55 L 180,56 L 180,61 L 181,62 L 181,86 L 180,87 L 180,93 L 179,94 L 179,98 L 178,99 L 178,102 L 177,103 L 177,106 L 176,107 L 176,109 L 175,110 L 175,112 L 174,113 L 174,115 L 173,116 L 173,117 L 171,119 L 171,120 L 163,128 L 162,128 L 160,130 L 159,130 L 158,131 L 157,131 L 155,133 L 153,133 L 152,134 L 146,134 L 142,130 L 142,127 L 141,126 L 141,115 L 142,114 L 142,108 L 143,107 L 143,100 L 144,99 L 144,92 L 145,91 L 145,81 L 145,91 L 144,92 L 143,91 L 143,88 L 143,91 L 142,92 L 142,99 L 141,100 L 141,107 L 140,108 L 140,114 L 139,115 L 139,127 L 140,128 L 140,130 L 141,131 L 141,133 L 144,136 L 153,136 L 154,135 L 155,135 L 156,134 L 158,134 L 159,133 L 160,133 L 162,131 L 163,131 L 165,129 L 166,129 L 173,122 L 173,121 L 174,120 L 174,119 L 175,118 L 175,116 L 176,115 L 176,113 L 177,112 L 177,110 L 178,109 L 178,107 L 179,106 L 179,103 L 180,102 L 180,99 L 181,98 L 181,94 L 182,93 L 182,87 L 183,86 L 183,77 L 183,86 L 182,87 L 181,86 L 181,62 L 182,61 L 183,62 L 183,70 L 183,62 L 182,61 L 182,56 L 181,55 L 181,52 L 180,51 L 180,48 L 179,47 L 179,45 L 178,44 L 178,43 L 177,42 L 177,40 L 176,39 L 176,38 L 175,37 L 175,36 L 174,35 L 174,34 L 173,33 L 173,32 L 171,30 L 171,29 L 169,27 L 169,26 L 156,13 L 155,13 L 152,10 L 151,10 L 149,8 L 148,8 L 146,6 L 145,6 L 144,5 L 143,5 L 142,4 L 141,4 L 140,3 L 139,3 L 138,2 L 136,2 L 135,1 L 133,1 L 132,0 L 130,0 L 132,0 L 133,1 L 132,2 L 127,2 L 126,1 L 125,1 L 124,2 L 120,2 L 119,3 L 117,3 L 116,2 L 117,1 L 118,1 L 119,0 L 121,0 L 118,0 L 116,2 L 114,2 L 111,5 L 110,5 L 108,7 L 108,8 L 106,10 L 106,11 L 105,12 L 105,13 L 104,14 L 104,15 L 103,16 L 103,18 L 102,19 L 102,21 L 101,22 L 101,24 L 99,26 L 95,26 L 94,27 L 88,27 L 87,26 L 84,26 L 82,24 L 82,23 L 81,22 L 81,20 L 80,19 L 80,17 L 79,16 L 79,14 L 78,13 L 78,12 L 77,11 L 77,10 L 74,7 L 74,6 L 73,6 L 69,2 L 67,2 L 66,1 L 65,1 L 64,0 L 61,0 L 64,0 L 65,1 L 66,1 L 67,2 L 66,3 L 64,3 L 63,2 L 59,2 L 58,1 L 57,1 L 56,2 L 51,2 L 50,1 L 51,0 L 53,0 Z" stroke="black" fill="none" stroke-width="2"/>
</svg>